<?xml version="1.0" encoding="utf-8"?>
<svg version="1.1" id="svg2" width="5334.6665" height="5334.6665" viewBox="0 0 5334.6665 5334.6665" xmlns="http://www.w3.org/2000/svg">
  <g id="g8" transform="matrix(2.091386, 0, 0, -2.08815, -1407.183514, 6917.187218)" style="">
    <g id="g10" transform="matrix(0.072017, 0, 0, 0.071064, 495.501693, 547.900834)" style="">
      <path d="m 18688.1,24900.6 c 1129.7,462.7 1313.5,-469.6 1313.5,-469.6 0,0 183.7,932.3 1313.4,469.6 0,0 -204.2,401.4 -1313.4,449.1 -1109.2,-47.7 -1313.5,-449.1 -1313.5,-449.1" style="fill:#100f0d;fill-opacity:1;fill-rule:evenodd;stroke:none" id="path16"/>
      <path d="m 18293.4,27377.7 c 966.4,517.2 1708.2,367.4 1708.2,367.4 0,0 741.8,149.8 1708.1,-367.4 0,0 -299.4,871 -1708.1,898.3 -1408.7,-27.3 -1708.2,-898.3 -1708.2,-898.3" style="fill:#100f0d;fill-opacity:1;fill-rule:evenodd;stroke:none" id="path18"/>
      <path d="M 18497.6 26234.4 C 18497.6 26234.4 18014.5 26193.6 17735.5 25792.1 C 17735.5 25792.1 17490.5 26472.6 16565 26404.6 C 16565 26404.6 16394.8 25628.8 16986.9 25315.7 C 16986.9 25315.7 16731.1 25726.6 16837.2 26057.5 L 17585.7 25322.5 C 17585.7 25322.5 17436 25193.2 17197.9 25206.8 C 17783.4 25131.6 17707.3 24821.1 17783.1 24342.6 C 17888.5 25035.3 17759.5 25807.1 18497.6 26234.4" style="fill:#100f0d;fill-opacity:1;fill-rule:evenodd;stroke:none" id="path20"/>
      <path d="m 21505.5,26234.4 c 0,0 483.2,-40.8 762.1,-442.3 0,0 245.1,680.5 1170.6,612.5 0,0 170.1,-775.8 -421.9,-1088.9 0,0 255.7,410.9 149.7,741.8 0,0 -612.5,-224.6 -748.6,-735 0,0 149.7,-129.3 387.9,-115.7 -585.5,-75.2 -509.4,-385.7 -585.3,-864.2 -105.4,692.7 23.6,1464.5 -714.5,1891.8" style="fill:#100f0d;fill-opacity:1;fill-rule:evenodd;stroke:none" id="path22"/>
      <path d="m 16347.1,24165.6 c 95.3,299.5 -54.5,1116.1 -54.5,1116.1 -843.8,2708.5 1810.3,3307.3 1810.3,3307.3 -871.1,394.8 -1456.4,-54.4 -1456.4,-54.4 -81.6,993.6 -1660.4,1102.5 -1660.4,1102.5 1606,-476.4 979.9,-2014.4 979.9,-2014.4 -830.3,-1184.1 -163.3,-2626.8 -163.3,-2626.8 -952.9,843.8 -735,2790.1 -735,2790.1 -707.7,-1061.6 -490,-2436.3 -490,-2436.3 -449.2,-2286.5 -3184.9,-939.1 -3184.9,-939.1 408.3,-1578.8 2504.3,-1769.4 2504.3,-1769.4 -2953.4,-245 -3565.9,2273 -3565.9,2273 680.6,2341 2749.3,4600.4 2749.3,4600.4 2595.2,2476.6 4981.5,1429.1 4981.5,1429.1 -857.4,-245 -843.8,-993.6 -843.8,-993.6 1456.3,1007.2 2783.4,843.8 2783.4,843.8 0,0 1327,163.4 2783.4,-843.8 0,0 13.6,748.6 -843.9,993.6 0,0 2386.3,1047.5 4981.6,-1429.1 0,0 2068.8,-2259.4 2749.2,-4600.4 0,0 -612.4,-2518 -3565.9,-2273 0,0 2096,190.6 2504.3,1769.4 0,0 -2735.7,-1347.4 -3184.8,939.1 0,0 217.8,1374.7 -490,2436.3 0,0 217.8,-1946.3 -735,-2790.1 0,0 666.9,1442.7 -163.3,2626.8 0,0 -626.1,1538 980,2014.4 0,0 -1578.9,-108.9 -1660.5,-1102.5 0,0 -585.3,449.2 -1456.4,54.4 0,0 2654.1,-598.8 1810.2,-3307.3 0,0 -149.6,-816.6 -54.4,-1116.1 0,0 -558.1,-108.8 -980,190.6 L 23765,21334.6 c 0,0 -353.9,-68.1 -653.4,-285.8 0,0 -340.2,503.6 -503.5,1224.9 0,0 -163.3,-244.9 -149.7,-517.2 0,0 -517.3,503.6 -394.8,1701.4 0,0 -244.9,-353.9 -285.7,-762.2 0,0 -612.5,285.8 -1320.3,81.6 0,0 1728.6,-775.8 1252.2,-2490.7 0,0 -245,530.8 -1048,639.7 0,0 1265.8,-939.2 911.9,-2436.3 0,0 -326.6,408.3 -1075.3,530.8 0,0 1878.2,-2994.3 -496.8,-4028.7 -2374.9,1034.4 -496.9,4028.7 -496.9,4028.7 -748.6,-122.5 -1075.2,-530.8 -1075.2,-530.8 -353.9,1497.1 911.9,2436.3 911.9,2436.3 -803,-108.9 -1048,-639.7 -1048,-639.7 -476.3,1714.9 1252.1,2490.7 1252.1,2490.7 -707.6,204.2 -1320.1,-81.6 -1320.1,-81.6 -40.9,408.3 -285.9,762.2 -285.9,762.2 122.5,-1197.8 -394.7,-1701.4 -394.7,-1701.4 13.6,272.3 -149.7,517.2 -149.7,517.2 -163.4,-721.3 -503.6,-1224.9 -503.6,-1224.9 -299.4,217.7 -653.3,285.8 -653.3,285.8 l 1088.8,3021.6 c -421.9,-299.4 -979.9,-190.6 -979.9,-190.6 z m 3654.5,7145.5 c 0,0 -891.5,-27.2 -1626.5,231.4 0,0 -3960.7,1538 -6682.8,-2409 0,0 -2096.01,-3429.9 -2177.69,-4301 0,0 1088.89,-3593.1 6015.99,-3457.1 0,0 -190.6,-666.9 231.3,-993.5 -578,-838.1 -501.4,-2385.3 -639.4,-3428.2 -76.6,-577.8 -236.7,-1443.2 -567.4,-2337.8 0,0 1032.2,-63.5 1762.1,1304.5 694.9,1302.4 295.1,3326.7 1350.1,3971.5 0,0 -54.4,-1116.1 340.3,-1728.5 0,0 -666.9,-3620.4 1994,-4110.4 2660.8,490 1994,4110.4 1994,4110.4 394.7,612.4 340.2,1728.5 340.2,1728.5 1055.1,-644.8 655.2,-2669.1 1350.2,-3971.5 730,-1368 1762,-1304.5 1762,-1304.5 -330.6,894.6 -490.8,1760 -567.2,2337.8 -138.1,1042.9 -61.6,2590.1 -639.5,3428.2 421.9,326.6 231.3,993.5 231.3,993.5 4927.1,-136 6015.9,3457.1 6015.9,3457.1 -81.7,871.1 -2177.7,4301 -2177.7,4301 -2722.1,3947 -6682.8,2409 -6682.8,2409 -735,-258.6 -1626.4,-231.4 -1626.4,-231.4 z m 3593.3,-10834 c 0,0 -564.9,-115.7 -408.3,-387.9 0,0 898.3,-1306.6 762.1,-2885.4 0,0 -231.4,544.4 -353.9,993.6 0,0 -122.5,-2177.8 1374.7,-3184.9 0,0 -598.9,1946.3 -544.4,3103.2 -57.1,951.1 -209.9,1642.4 -830.2,2361.4 z m -7186.6,0 c 0,0 564.9,-115.7 408.3,-387.9 0,0 -898.2,-1306.6 -762.1,-2885.4 0,0 231.3,544.4 353.8,993.6 0,0 122.5,-2177.8 -1374.6,-3184.9 0,0 598.9,1946.3 544.4,3103.2 57.1,951.1 210,1642.4 830.2,2361.4" style="fill:#100f0d;fill-opacity:1;fill-rule:evenodd;stroke:none" id="path24"/>
    </g>
  </g>
  <path stroke-width="0" d="M 2163.341 1881.653 C 2187.777 1872.634 2295.762 1945.538 2307.018 1970.227 C 2313.234 1983.858 2303.225 1997.528 2292.155 2006.697 C 2277.077 2019.187 2236.711 2033.413 2212.885 2027.539 C 2188.751 2021.587 2156.784 1994.446 2148.477 1970.227 C 2140.126 1945.874 2144.624 1888.562 2163.341 1881.653 Z" style="stroke-width: 2px; stroke: rgb(249, 102, 17); fill: rgb(252, 57, 33);"/>
  <path stroke-width="0" d="M 2995.299 2034.487 C 3019.735 2043.506 3127.72 1970.602 3138.976 1945.913 C 3145.192 1932.282 3135.183 1918.612 3124.113 1909.443 C 3109.035 1896.953 3068.669 1882.727 3044.843 1888.601 C 3020.709 1894.553 2988.742 1921.694 2980.435 1945.913 C 2972.084 1970.266 2976.582 2027.578 2995.299 2034.487 Z" style="stroke-width: 2px; stroke: rgb(249, 102, 17); fill: rgb(252, 57, 33); transform-origin: 3058.65px 1961.26px;" transform="matrix(-1, 0, 0, -1, 0.000029, 0.00019)"/>
</svg>